<svg xmlns="http://www.w3.org/2000/svg" xmlns:xlink="http://www.w3.org/1999/xlink" version="1.1" x="0px" y="0px" viewBox="0 0 90 87.5" enable-background="new 0 0 90 70" xml:space="preserve"><g><path fill="#000000" d="M68.955,46.643c-4.969,0-8.999,4.03-8.999,8.999c0,4.97,4.03,9,8.999,9c4.97,0,9-4.03,9-9   C77.955,50.673,73.925,46.643,68.955,46.643z M68.955,59.79c-2.289,0-4.148-1.856-4.148-4.148s1.856-4.148,4.148-4.148   c2.293,0,4.149,1.856,4.149,4.148S71.246,59.79,68.955,59.79z"/><path fill="#000000" d="M23.013,46.643c-4.97,0-8.999,4.03-8.999,8.999c0,4.97,4.029,9,8.999,9c4.969,0,8.999-4.03,8.999-9   C32.012,50.673,27.981,46.643,23.013,46.643z M23.013,59.79c-2.291,0-4.149-1.856-4.149-4.148s1.857-4.148,4.149-4.148   s4.148,1.856,4.148,4.148S25.303,59.79,23.013,59.79z"/><circle fill="#000000" cx="58.716" cy="26.387" r="0.397"/><path fill="#000000" d="M61.359,22.706l-3.231,3.231c-0.287,0.287-0.288,0.751-0.001,1.039s0.752,0.287,1.039,0l3.231-3.231   c0.286-0.287,0.287-0.752,0-1.039C62.11,22.418,61.645,22.419,61.359,22.706z M59.09,26.761c-0.207,0.207-0.541,0.207-0.748,0   s-0.207-0.541,0-0.748s0.541-0.207,0.748,0C59.295,26.22,59.295,26.554,59.09,26.761z M61.484,23.863   c-0.068,0.068-0.178,0.068-0.245,0c-0.067-0.067-0.066-0.177,0-0.244c0.067-0.067,0.177-0.067,0.243,0   C61.552,23.686,61.552,23.795,61.484,23.863z M61.909,23.438c-0.067,0.067-0.177,0.067-0.243-0.001   c-0.068-0.067-0.068-0.177,0-0.244c0.066-0.067,0.176-0.067,0.244,0C61.977,23.26,61.977,23.37,61.909,23.438z"/><path fill="#000000" d="M71.404,17.07l2.654-2.654c0.194-0.195,0.201-0.503,0.015-0.689l-2.697-2.699   c-0.187-0.186-0.495-0.179-0.689,0.015l-2.655,2.654c-0.971,0.972-1.003,2.514-0.072,3.445   C68.892,18.074,70.434,18.042,71.404,17.07z M73.742,13.895c0.063,0.063,0.063,0.165,0,0.228l-2.721,2.721   c-0.062,0.062-0.166,0.062-0.229,0c-0.062-0.063-0.062-0.165,0-0.228l2.723-2.721C73.577,13.833,73.679,13.832,73.742,13.895z    M73.104,13.258c0.063,0.063,0.063,0.165,0,0.227l-2.722,2.721c-0.062,0.063-0.164,0.063-0.227,0s-0.062-0.165,0-0.228l2.722-2.72   C72.939,13.194,73.043,13.194,73.104,13.258z M72.43,12.582c0.062,0.062,0.062,0.165,0,0.228l-2.721,2.722   c-0.062,0.062-0.166,0.062-0.229,0c-0.062-0.063-0.062-0.166,0-0.229l2.722-2.721C72.265,12.519,72.367,12.519,72.43,12.582z    M71.602,11.982c0.064-0.063,0.166-0.063,0.229,0s0.062,0.165,0,0.228l-2.721,2.721c-0.064,0.063-0.166,0.063-0.229,0   c-0.062-0.062-0.062-0.165,0-0.228L71.602,11.982z M68.244,14.066l2.721-2.722c0.062-0.062,0.164-0.062,0.229,0   c0.062,0.063,0.062,0.166,0,0.229l-2.723,2.721c-0.062,0.063-0.164,0.063-0.227,0C68.182,14.23,68.182,14.129,68.244,14.066z"/><path fill="#000000" d="M71.784,26.975c0.287,0.288,0.752,0.288,1.039,0c0.286-0.286,0.286-0.751,0-1.038l-3.232-3.232   c-0.287-0.287-0.751-0.287-1.038,0c-0.287,0.287-0.287,0.752,0,1.039L71.784,26.975z M71.86,26.014   c0.207-0.207,0.541-0.207,0.746,0c0.208,0.207,0.208,0.541,0,0.748c-0.205,0.207-0.539,0.207-0.746,0   C71.654,26.555,71.654,26.22,71.86,26.014z M69.466,23.619c0.067-0.068,0.177-0.068,0.243,0c0.067,0.067,0.068,0.176,0,0.244   c-0.066,0.068-0.176,0.068-0.244,0C69.398,23.795,69.398,23.686,69.466,23.619z M69.04,23.193c0.067-0.067,0.177-0.067,0.245,0   c0.067,0.067,0.067,0.177,0,0.245c-0.068,0.067-0.178,0.067-0.244,0C68.973,23.371,68.973,23.261,69.04,23.193z"/><path fill="#000000" d="M59.545,17.07c0.971,0.972,2.515,1.004,3.445,0.073c0.931-0.931,0.898-2.474-0.072-3.445l-2.655-2.655   c-0.194-0.194-0.503-0.201-0.688-0.014l-2.699,2.698c-0.185,0.186-0.18,0.494,0.016,0.688L59.545,17.07z M59.742,11.361   c0.062-0.063,0.164-0.063,0.227,0l2.723,2.721c0.062,0.063,0.062,0.165,0,0.228c-0.064,0.063-0.166,0.063-0.229,0l-2.721-2.722   C59.679,11.525,59.679,11.424,59.742,11.361z M59.104,11.999c0.062-0.063,0.165-0.063,0.228,0l2.721,2.721   c0.062,0.063,0.062,0.165,0,0.228c-0.062,0.062-0.164,0.062-0.227,0l-2.722-2.721C59.042,12.163,59.042,12.061,59.104,11.999z    M58.43,12.673c0.062-0.063,0.164-0.063,0.227,0l2.723,2.721c0.062,0.063,0.062,0.165,0,0.228c-0.064,0.063-0.166,0.063-0.229,0   l-2.721-2.721C58.366,12.838,58.366,12.736,58.43,12.673z M57.829,13.273c0.063-0.063,0.165-0.063,0.228,0l2.721,2.721   c0.064,0.063,0.064,0.165,0,0.228c-0.062,0.062-0.164,0.062-0.227,0l-2.722-2.721C57.767,13.438,57.767,13.336,57.829,13.273z    M57.192,13.91c0.062-0.062,0.164-0.062,0.228,0l2.721,2.721c0.064,0.063,0.062,0.165,0,0.228c-0.062,0.062-0.164,0.063-0.228,0   l-2.721-2.721C57.129,14.075,57.129,13.973,57.192,13.91z"/><circle fill="#000000" cx="72.233" cy="26.387" r="0.397"/><path fill="#000000" d="M82.156,6H28.531c-1.65,0-3.36,1.301-3.801,2.891L19.457,27.93c-0.44,1.59-2.068,3.355-3.618,3.923   l-8.176,2.995l-1.486,0.494l0.002,0.005c-0.753,0.285-1.292,0.996-1.327,1.841H4.844v16.125h0.027   c-0.011,0.089-0.027,0.176-0.027,0.268c0,1.139,0.923,2.062,2.062,2.062h4.844c0-6.179,5.009-11.188,11.188-11.188   s11.188,5.009,11.188,11.188H57.75c0-6.179,5.009-11.188,11.188-11.188s11.188,5.009,11.188,11.188h2.031c1.65,0,3-1.35,3-3V9   C85.156,7.35,83.807,6,82.156,6z M56.392,13.679l3.134-3.133c0.216-0.217,0.565-0.217,0.783,0l2.955,2.954   c1.044,1.046,1.076,2.717,0.1,3.804l2.111,2.111l2.111-2.112c-0.977-1.086-0.944-2.758,0.102-3.804l2.955-2.954   c0.215-0.216,0.566-0.216,0.781,0l3.135,3.133c0.216,0.216,0.216,0.566,0,0.783l-2.955,2.955c-1.047,1.045-2.719,1.077-3.805,0.101   l-2.111,2.111l2.8,2.799c0.379-0.277,0.912-0.247,1.255,0.095l3.248,3.248c0.379,0.38,0.379,0.995,0,1.373   c-0.379,0.379-0.992,0.379-1.373,0l-3.248-3.248c-0.342-0.343-0.371-0.876-0.096-1.255l-2.799-2.799l-2.799,2.799   c0.277,0.379,0.247,0.913-0.096,1.255l-3.248,3.248c-0.38,0.379-0.994,0.379-1.373,0c-0.379-0.378-0.379-0.993,0-1.373l3.248-3.248   c0.343-0.342,0.877-0.373,1.256-0.095l2.799-2.799l-2.111-2.111c-1.087,0.976-2.758,0.944-3.803-0.101l-2.955-2.955   C56.176,14.245,56.176,13.895,56.392,13.679z M24.562,26.141l3.542-14.366c0.264-1.068,1.379-1.942,2.479-1.942H42c1.1,0,2,0.9,2,2   v14.25c0,1.1-0.9,2-2,2H26.083C24.982,28.083,24.298,27.209,24.562,26.141z M82.625,32.161c0,0.275-0.225,0.5-0.5,0.5h-59.25   c-0.275,0-0.5-0.225-0.5-0.5v-0.679c0-0.275,0.225-0.5,0.5-0.5h59.25c0.275,0,0.5,0.225,0.5,0.5V32.161z"/><rect x="65.324" y="19.478" transform="matrix(-0.7071 0.7071 -0.7071 -0.7071 125.6515 -12.7897)" fill="#000000" width="0.301" height="0.301"/></g></svg>