<svg xmlns="http://www.w3.org/2000/svg" xmlns:xlink="http://www.w3.org/1999/xlink" version="1.1" x="0px" y="0px" viewBox="0 0 100 125" enable-background="new 0 0 100 100" xml:space="preserve"><g><path d="M25.661,14.505c1.342,0,2.431-1.088,2.431-2.431s-1.088-6.913-2.431-6.913c-1.343,0-2.431,5.571-2.431,6.913   S24.318,14.505,25.661,14.505z M25.382,9.176c0.095-0.384,0.189-0.719,0.279-1.009c0.09,0.29,0.184,0.624,0.279,1.009   c0.319,1.292,0.489,2.514,0.489,2.899c0,0.423-0.344,0.768-0.767,0.768c-0.423,0-0.768-0.344-0.768-0.768   C24.893,11.69,25.063,10.468,25.382,9.176z"/><path d="M37.823,14.505c1.342,0,2.431-1.088,2.431-2.431s-1.088-6.913-2.431-6.913s-2.431,5.571-2.431,6.913   S36.481,14.505,37.823,14.505z M37.544,9.176c0.095-0.384,0.189-0.719,0.279-1.009c0.09,0.29,0.184,0.624,0.279,1.009   c0.319,1.292,0.489,2.514,0.489,2.899c0,0.423-0.344,0.768-0.767,0.768c-0.423,0-0.768-0.344-0.768-0.768   C37.056,11.69,37.225,10.468,37.544,9.176z"/><path d="M49.986,14.505c1.342,0,2.431-1.088,2.431-2.431s-1.088-6.913-2.431-6.913c-1.343,0-2.431,5.571-2.431,6.913   S48.643,14.505,49.986,14.505z M49.707,9.176c0.095-0.384,0.189-0.719,0.279-1.009c0.09,0.29,0.184,0.624,0.279,1.009   c0.319,1.292,0.489,2.514,0.489,2.899c0,0.423-0.344,0.768-0.767,0.768c-0.423,0-0.768-0.344-0.768-0.768   C49.218,11.69,49.388,10.468,49.707,9.176z"/><path d="M62.148,14.505c1.342,0,2.431-1.088,2.431-2.431s-1.088-6.913-2.431-6.913s-2.431,5.571-2.431,6.913   S60.806,14.505,62.148,14.505z M61.87,9.176c0.095-0.384,0.189-0.719,0.279-1.009c0.09,0.29,0.184,0.624,0.279,1.009   c0.319,1.292,0.489,2.514,0.489,2.899c0,0.423-0.344,0.768-0.768,0.768c-0.423,0-0.768-0.344-0.768-0.768   C61.381,11.69,61.551,10.468,61.87,9.176z"/><path d="M74.311,14.505c1.343,0,2.431-1.088,2.431-2.431s-1.088-6.913-2.431-6.913c-1.342,0-2.431,5.571-2.431,6.913   S72.968,14.505,74.311,14.505z M74.032,9.176c0.095-0.384,0.189-0.719,0.279-1.009c0.09,0.29,0.184,0.624,0.279,1.009   c0.319,1.292,0.489,2.514,0.489,2.899c0,0.423-0.344,0.768-0.768,0.768c-0.423,0-0.768-0.344-0.768-0.768   C73.543,11.69,73.713,10.468,74.032,9.176z"/><path d="M94.478,51.587H78.243V38.503c0.323-0.176,0.608-0.362,0.901-0.559c0.23-0.154,0.39-0.413,0.39-0.69V25.909   c0-0.459-0.397-0.871-0.857-0.871h-2.694v-8.392h-3.308v8.392h-8.876v-8.392H60.49v8.392h-8.876v-8.392h-3.308v8.392H39.51v-8.392   h-3.389v8.392h-8.796v-8.392h-3.308v8.392h-2.722c-0.459,0-0.828,0.411-0.828,0.871v11.334c0,0.219,0.068,0.429,0.222,0.585   c0.299,0.302,0.666,0.585,0.989,0.848v12.91H5.494c-0.459,0-0.843,0.347-0.843,0.806v18.013c0,0.255,0.139,0.496,0.34,0.654   c0.306,0.241,0.629,0.47,0.951,0.691v22.224c0,0.459,0.34,0.864,0.8,0.864h86.49c0.459,0,0.828-0.405,0.828-0.864V71.756   c0.323-0.218,0.649-0.444,0.95-0.68c0.201-0.158,0.341-0.399,0.341-0.655V52.393C95.35,51.934,94.937,51.587,94.478,51.587z    M23.371,39.619c1.614,0.733,3.581,1.149,5.585,1.149c3.955,0,7.645-1.706,10.274-4.715c2.632,3.009,6.343,4.715,10.334,4.715   c4.011,0,7.735-1.707,10.368-4.719c1.164,1.308,2.611,2.409,4.236,3.214c1.985,0.985,4.209,1.505,6.401,1.505   c2.065,0,4.042-0.453,6.059-1.377v12.196H23.371V39.619z M92.364,93.144H7.555V72.811c3.066,1.733,6.358,2.61,9.925,2.61   c6.214,0,11.996-2.748,16.014-7.578c4.021,4.83,9.827,7.578,16.085,7.578c3.36,0,6.569-0.773,9.535-2.296   c2.503-1.286,4.763-3.101,6.587-5.284c3.995,4.765,10.004,7.58,16.315,7.58c3.631,0,7.281-0.943,10.348-2.642V93.144z"/></g></svg>